<?xml version="1.0" encoding="utf-8"?>
<!-- Generator: Adobe Illustrator 23.0.5, SVG Export Plug-In . SVG Version: 6.00 Build 0)  -->
<svg version="1.1" id="Layer_1" xmlns="http://www.w3.org/2000/svg" xmlns:xlink="http://www.w3.org/1999/xlink" x="0px" y="0px"
	 viewBox="0 0 257.99 119.99" style="enable-background:new 0 0 257.99 119.99;" xml:space="preserve">
<style type="text/css">
	.st0{fill:#D86C46;}
	.st1{fill:#FE823B;}
	.st2{fill:#FFFFFF;}
	.st3{opacity:0.2;}
	.st4{clip-path:url(#SVGID_2_);fill:#410E64;}
	.st5{fill:#EDEBEB;}
	.st6{opacity:0.83;fill:#D86C46;}
</style>
<g>
	<path class="st0" d="M82.6,79.54c-0.62,1.08-0.81,2.36-0.52,3.61l6.01,25.11c0.55,2.24,2.52,3.79,4.8,3.79
		c0.38,0,0.77-0.05,1.15-0.14c2.64-0.65,4.27-3.32,3.64-5.95l-6.02-25.13c-0.29-1.22-1.04-2.28-2.1-2.97L82.6,79.54z"/>
	<path class="st1" d="M89.58,77.86l-6.98,1.67l-1.27-5.33c2.49-0.09,4.84-0.69,6.97-1.69L89.58,77.86z"/>
	<path class="st0" d="M89.58,77.93L82.6,79.6l-1.27-5.33c2.49-0.09,4.84-0.69,6.97-1.69L89.58,77.93z"/>
	<path class="st1" d="M91.73,59.21c-0.44,0.1-0.8,0.42-0.96,0.84c-1.26,3.36-4.08,5.87-7.54,6.7c-0.82,0.19-1.66,0.3-2.5,0.3
		c-3.67,0-7.04-1.88-9-4.9l15.26-3.64l6.12-1.41l3.75-0.87c-0.05-9.12-7.7-16.46-16.93-16.02C71.69,40.61,65,47.3,64.6,55.55
		c-0.44,9.25,6.96,16.93,16.12,16.93c8.33,0,15.2-6.35,16.05-14.45c-0.04,0-0.08,0.01-0.11,0.02L91.73,59.21z M78.23,45.88
		c0.82-0.2,1.66-0.3,2.5-0.3c3.66,0,7.04,1.88,9,4.9l-4.38,1.05l-15.28,3.65C70.54,50.73,73.76,46.95,78.23,45.88"/>
	<path class="st1" d="M58.8,51.25v16.17c0,2.27-1.92,4.11-4.19,4.11c-2.27,0-4.11-1.84-4.11-4.11V51.25c0-0.43-0.14-1.7-0.71-2.84
		c-0.57-1.28-1.28-1.7-2.7-1.7c-1.42,0-2.2,0.42-2.77,1.7c-0.5,1.13-0.64,2.41-0.64,2.84v16.17c0,2.27-1.92,4.11-4.19,4.11
		c-2.27,0-4.11-1.84-4.11-4.11V51.25c0-0.43-0.14-1.7-0.64-2.84c-0.64-1.21-1.35-1.7-2.77-1.7c-1.42,0-2.2,0.5-2.77,1.7
		c-0.5,1.13-0.64,2.41-0.64,2.84v16.17c0,2.27-1.84,4.11-4.18,4.11c-2.27,0-4.11-1.84-4.11-4.11V42.59c0-2.27,1.84-4.19,4.11-4.19
		c1.06,0,1.99,0.43,2.69,0.99c1.42-0.64,2.98-0.99,4.9-0.99c3.26,0,5.75,1.13,7.52,2.77c1.84-1.63,4.33-2.77,7.59-2.77
		C55.67,38.41,58.8,46.07,58.8,51.25"/>
	<path class="st1" d="M119.12,38.41c3.05,0,5.89,0.85,8.3,2.27V25.99c0-2.27,1.84-4.11,4.11-4.11c2.34,0,4.19,1.85,4.19,4.11v41.43
		c0,2.27-1.84,4.11-4.19,4.11c-1.63,0-3.12-0.99-3.76-2.41c-2.48,1.49-5.46,2.41-8.66,2.41c-9.08,0-16.53-7.45-16.53-16.53
		C102.59,45.86,110.04,38.41,119.12,38.41 M119.12,63.24c4.61,0,8.3-3.69,8.3-8.23c0-4.61-3.69-8.3-8.3-8.3
		c-4.54,0-8.23,3.69-8.23,8.3C110.89,59.55,114.58,63.24,119.12,63.24"/>
	<path class="st1" d="M182.89,42.59c0,0.43-0.07,0.92-0.21,1.35l-8.73,24.83c-0.57,1.63-2.13,2.77-3.9,2.77
		c-1.77,0-3.33-1.13-3.9-2.77l-4.82-13.76l-4.82,13.76c-0.57,1.63-2.13,2.77-3.9,2.77s-3.33-1.13-3.9-2.77l-8.73-24.83
		c-0.14-0.43-0.21-0.92-0.21-1.35c0-1.77,1.06-3.33,2.77-3.9c0.43-0.14,0.92-0.21,1.42-0.21c1.7,0,3.26,0.99,3.83,2.7l4.82,13.69
		l4.75-13.69c0.57-1.77,2.13-2.7,3.83-2.77h0.28c1.7,0.07,3.19,1.14,3.76,2.77l4.82,13.69l4.82-13.69c0.57-1.7,2.13-2.7,3.83-2.7
		c0.5,0,0.92,0.07,1.42,0.21C181.82,39.26,182.89,40.89,182.89,42.59"/>
	<path class="st1" d="M190.37,32.31c-2.27,0-4.11-1.84-4.11-4.19c0-2.27,1.84-4.11,4.11-4.11c2.27,0,4.19,1.84,4.19,4.11
		C194.56,30.46,192.64,32.31,190.37,32.31 M186.26,67.42V42.59c0-2.27,1.84-4.19,4.11-4.19c2.27,0,4.19,1.92,4.19,4.19v24.83
		c0,2.27-1.91,4.11-4.19,4.11C188.1,71.54,186.26,69.69,186.26,67.42"/>
	<path class="st1" d="M224.27,64.44c0.92,0.92,1.21,1.92,1.21,2.98c0,1.06-0.43,2.13-1.21,2.91c-0.78,0.78-1.84,1.21-2.91,1.21
		c-1.06,0-2.13-0.42-2.91-1.21l-11.56-11.56v8.65c0,2.27-1.92,4.11-4.19,4.11s-4.11-1.84-4.11-4.11V25.99
		c0-2.27,1.84-4.11,4.11-4.11s4.19,1.84,4.19,4.11v25.19l11.56-11.56c0.78-0.78,1.84-1.13,2.91-1.13c1.06,0,2.06,0.35,2.91,1.13
		c0.78,0.85,1.21,1.92,1.21,2.98c0,1.06-0.43,2.13-1.21,2.91l-9.51,9.51L224.27,64.44z"/>
	<path class="st1" d="M233.62,32.31c-2.27,0-4.11-1.84-4.11-4.19c0-2.27,1.84-4.11,4.11-4.11c2.27,0,4.19,1.84,4.19,4.11
		C237.81,30.46,235.89,32.31,233.62,32.31 M229.51,67.42V42.59c0-2.27,1.84-4.19,4.11-4.19c2.27,0,4.19,1.92,4.19,4.19v24.83
		c0,2.27-1.92,4.11-4.19,4.11C231.35,71.54,229.51,69.69,229.51,67.42"/>
	<path class="st2" d="M89.08,103.2c-0.23,0-0.45-0.16-0.5-0.4l-4.81-19.66c-0.07-0.28,0.1-0.56,0.38-0.63
		c0.28-0.07,0.56,0.1,0.63,0.38l4.81,19.66c0.07,0.28-0.1,0.56-0.38,0.63C89.16,103.2,89.12,103.2,89.08,103.2"/>
	<path class="st2" d="M90.31,106.97L90.31,106.97c-0.28,0.07-0.57-0.1-0.64-0.38l-0.4-1.64c-0.07-0.29,0.12-0.59,0.43-0.64
		c0.27-0.04,0.52,0.15,0.59,0.42l0.39,1.61C90.75,106.62,90.58,106.89,90.31,106.97"/>
	<path class="st2" d="M67.69,53.04c-0.05,0-0.1-0.01-0.15-0.02c-0.27-0.09-0.43-0.38-0.34-0.65c1.56-5.02,5.69-8.95,10.77-10.27
		c1.25-0.32,2.54-0.49,3.85-0.49c0.29,0,0.52,0.23,0.52,0.52c0,0.29-0.23,0.52-0.52,0.52c-1.22,0-2.42,0.15-3.59,0.45
		c-4.74,1.23-8.58,4.89-10.03,9.57C68.12,52.89,67.91,53.04,67.69,53.04"/>
	<path class="st2" d="M67.02,57.43c-0.29,0-0.52-0.23-0.52-0.52c0-0.37,0.01-0.75,0.04-1.12c0.02-0.29,0.27-0.5,0.56-0.48
		c0.29,0.02,0.5,0.27,0.48,0.56c-0.02,0.34-0.04,0.69-0.04,1.04C67.54,57.2,67.31,57.43,67.02,57.43"/>
	<g class="st3">
		<g>
			<defs>
				<rect id="SVGID_1_" x="20.27" y="45.71" width="217.53" height="26.77"/>
			</defs>
			<clipPath id="SVGID_2_">
				<use xlink:href="#SVGID_1_"  style="overflow:visible;"/>
			</clipPath>
			<path class="st4" d="M95.08,63.7c-2.68,5.2-8.11,8.77-14.36,8.77c-6.2,0-11.59-3.51-14.29-8.65c2.22,0.04,4.46,0.07,6.73,0.09
				c1.98,1.97,4.69,3.14,7.57,3.14c0.84,0,1.68-0.1,2.5-0.3c1.98-0.48,3.74-1.5,5.13-2.91C90.59,63.81,92.82,63.76,95.08,63.7"/>
			<path class="st4" d="M58.8,63.64v3.78c0,2.27-1.92,4.11-4.18,4.11c-2.27,0-4.12-1.84-4.12-4.11v-4.1
				C53.22,63.45,55.99,63.56,58.8,63.64"/>
			<path class="st4" d="M43.69,62.96v4.46c0,2.27-1.92,4.11-4.18,4.11c-2.27,0-4.12-1.84-4.12-4.11v-5.04
				C38.1,62.6,40.86,62.79,43.69,62.96"/>
			<path class="st4" d="M28.57,61.8v5.63c0,2.27-1.84,4.11-4.18,4.11c-2.27,0-4.12-1.84-4.12-4.11v-6.51
				C22.97,61.23,25.73,61.52,28.57,61.8"/>
			<path class="st4" d="M135.72,61.54v5.88c0,2.27-1.84,4.11-4.19,4.11c-1.63,0-3.12-0.99-3.76-2.41c-2.48,1.49-5.46,2.41-8.65,2.41
				c-6.03,0-11.34-3.28-14.23-8.15c3.85-0.15,7.75-0.33,11.68-0.55h0c0.8,0.26,1.65,0.4,2.54,0.4c1.25,0,2.44-0.27,3.5-0.76h0
				c3.99-0.25,8.01-0.53,12.07-0.85C135.04,61.6,135.38,61.57,135.72,61.54"/>
			<path class="st4" d="M178.09,56.98l-4.14,11.79c-0.57,1.63-2.13,2.76-3.9,2.76c-1.77,0-3.33-1.13-3.9-2.76l-3.45-9.85
				C167.91,58.32,173.05,57.67,178.09,56.98"/>
			<path class="st4" d="M159.84,59.24l-3.34,9.53c-0.57,1.63-2.13,2.76-3.9,2.76c-1.77,0-3.33-1.13-3.9-2.76l-2.85-8.1
				C150.57,60.23,155.23,59.76,159.84,59.24"/>
			<path class="st4" d="M194.56,54.51v12.91c0,2.27-1.92,4.11-4.19,4.11c-2.27,0-4.11-1.84-4.11-4.11V55.81
				C189.06,55.39,191.83,54.96,194.56,54.51"/>
			<path class="st4" d="M225.48,67.42c0,1.06-0.42,2.13-1.2,2.91c-0.78,0.78-1.85,1.2-2.91,1.2c-1.06,0-2.13-0.42-2.91-1.2
				l-11.56-11.56v8.65c0,2.27-1.92,4.11-4.19,4.11c-2.27,0-4.11-1.84-4.11-4.11V53.84c7.41-1.26,14.55-2.61,21.37-4.03l-5.2,5.2
				l9.51,9.43C225.19,65.37,225.48,66.36,225.48,67.42"/>
			<path class="st4" d="M237.81,45.71v21.72c0,2.27-1.92,4.11-4.19,4.11c-2.27,0-4.11-1.84-4.11-4.11V47.71
				C232.34,47.06,235.11,46.39,237.81,45.71"/>
		</g>
	</g>
</g>
</svg>
